<svg xmlns="http://www.w3.org/2000/svg" version="1.1" xmlns:xlink="http://www.w3.org/1999/xlink" xmlns:svgjs="http://svgjs.com/svgjs" width="512" height="512" x="0" y="0" viewBox="0 0 64 64" style="enable-background:new 0 0 512 512" xml:space="preserve" class=""><circle r="32" cx="32" cy="32" fill="#ffffff" shape="circle"></circle><g transform="matrix(0.7,0,0,0.7,9.600000000000001,9.600000000000001)"><g data-name="20-Currency Exchange"><path fill="#ffac5a" d="M24 5a7.933 7.933 0 0 1 6.26 3.03 12.992 12.992 0 0 0-12.03 10.51A8 8 0 0 1 24 5z" data-original="#ffac5a" class=""></path><path fill="#ff873c" d="M32.96 5.03a12.018 12.018 0 0 1 2.25 3.67A13.045 13.045 0 0 0 31 8c-.25 0-.49.01-.74.03a8 8 0 1 0-12.03 10.51 13.146 13.146 0 0 0 .02 5A12 12 0 1 1 32.96 5.03z" data-original="#ff873c" class=""></path><path fill="#ffbeaa" d="m46 12-3.62 2.72a12.985 12.985 0 0 0-5.35-5.24L40 8z" data-original="#ffbeaa" class=""></path><circle cx="31" cy="21" r="13" fill="#ffac5a" data-original="#ffac5a" class=""></circle><path fill="#c2adfc" d="M62.953 7v16h-6V7z" data-original="#64e1dc" class=""></path><path fill="#9873fe" d="M62.953 7v16h-3V7z" data-original="#00c8c8" class=""></path><path fill="#ffdfb0" d="M39.893 20a8.262 8.262 0 0 1 .06 1 9.015 9.015 0 1 1-2.3-6h-3.2a2.5 2.5 0 0 0 0 5z" data-original="#ffdfb0" class=""></path><path fill="#ffcf94" d="M28.953 13a8.94 8.94 0 0 1 5.633 2h3.067a8.99 8.99 0 0 0-11.722-1.469A8.98 8.98 0 0 1 28.953 13zM39.893 20h-5.44a2.492 2.492 0 0 1-1.992-4h-.008a2.5 2.5 0 0 0 0 5h5.44a8.262 8.262 0 0 1 .06 1 8.993 8.993 0 0 1-3.978 7.469A9 9 0 0 0 39.953 21a8.262 8.262 0 0 0-.06-1z" data-original="#ffcf94" class=""></path><path fill="#fc9942" d="M37.653 13a8.994 8.994 0 0 0-15.7 6 9.059 9.059 0 0 0 .068.938A8.99 8.99 0 0 1 37.653 15h4.3l.38-.28A12.988 12.988 0 0 0 41.177 13zM39.894 22h2.059a11.874 11.874 0 0 0 1.842.934A13.118 13.118 0 0 0 43.953 21a11.92 11.92 0 0 1-2-1h-2.06a8.262 8.262 0 0 1 .06 1 8.935 8.935 0 0 1-.059 1z" data-original="#fc9942" class=""></path><path fill="#ff873c" d="M31.953 20h-2a1 1 0 0 1 0-2h2a1 1 0 0 1 1 1h2a3 3 0 0 0-3-3v-1h-2v1a3 3 0 0 0 0 6h2a1 1 0 1 1 0 2h-2a1 1 0 0 1-1-1h-2a3 3 0 0 0 3 3v1h2v-1a3 3 0 1 0 0-6z" data-original="#ff873c" class=""></path><path fill="#ffcdbe" d="M57 9v12a37.839 37.839 0 0 1-8 1 13.6 13.6 0 0 1-5-1 11.92 11.92 0 0 1-2-1h-7.5a2.5 2.5 0 1 1 0-5H42l.38-.28L46 12l-6-4-2.97 1.48a12.78 12.78 0 0 0-1.82-.78 12.018 12.018 0 0 0-2.25-3.67L33 5l6-4z" data-original="#ffcdbe" class=""></path><path fill="#ffd8cf" d="m39 1-6 4-.04.03a11.8 11.8 0 0 1 1.012 1.322L39 3l18 8V9z" data-original="#ffd8cf" class=""></path><path fill="#ffbeaa" d="M43.953 19a11.92 11.92 0 0 1-2-1h-7.5a2.5 2.5 0 0 1-2.29-1.5 2.5 2.5 0 0 0 2.29 3.5h7.5a11.92 11.92 0 0 0 2 1 13.6 13.6 0 0 0 5 1 37.839 37.839 0 0 0 8-1v-2a37.839 37.839 0 0 1-8 1 13.6 13.6 0 0 1-5-1z" data-original="#ffbeaa" class=""></path><path fill="#fc9942" d="M28.305 6.255a15 15 0 0 0-11.561 10.094 8.044 8.044 0 0 0 1.486 2.191A12.992 12.992 0 0 1 30.26 8.03a7.878 7.878 0 0 0-1.955-1.775z" data-original="#fc9942" class=""></path><path fill="#fa732d" d="M28.305 6.255A7.878 7.878 0 0 1 30.26 8.03c.25-.02.49-.03.74-.03a13.045 13.045 0 0 1 4.21.7 12.122 12.122 0 0 0-1.279-2.409 14.644 14.644 0 0 0-5.626-.036zM18 21a13.321 13.321 0 0 1 .23-2.46 8.044 8.044 0 0 1-1.486-2.191A14.967 14.967 0 0 0 16 21c0 .333.028.659.05.986a11.954 11.954 0 0 0 2.2 1.554A13.259 13.259 0 0 1 18 21z" data-original="#fa732d" class=""></path><path fill="#02002c" d="M46.707 29.707 49 27.414V39h2V27.414l2.293 2.293 1.414-1.414-4-4-.007.007a.985.985 0 0 0-1.408-.006l-4 4z" data-original="#19cffc" class=""></path><circle cx="43" cy="52" r="7" fill="#ffc170" data-original="#ffc170"></circle><circle cx="43" cy="52" r="4" fill="#ffcf94" data-original="#ffcf94" class=""></circle><path fill="#9873fe" d="M35.54 38.7 55 34l2 7H26z" data-original="#1cadb5" class=""></path><path fill="#c2adfc" d="M63 41v22H23v-8h4v2a2.006 2.006 0 0 1 2 2h28a2.006 2.006 0 0 1 2-2V47a2.006 2.006 0 0 1-2-2H29a2.006 2.006 0 0 1-2 2v3h-4v-9z" data-original="#64e1dc" class=""></path><g fill="#00c8c8"><path d="M27 57v-2h-4v8h2v-4a2 2 0 0 1 2-2zM25 46a3 3 0 0 1 3-3h35v-2H23v9h2zM7 56v2H1V42h6v2z" fill="#9873fe" data-original="#00c8c8" class=""></path></g><path fill="#c2adfc" d="M7 56v2H4V42h3v2z" data-original="#64e1dc" class=""></path><path fill="#ffcdbe" d="M23 50h6.5a2.5 2.5 0 1 1 0 5H22a13.834 13.834 0 0 1-7 2 37.839 37.839 0 0 1-8-1V44l18-8 8 1 2.54 1.7L26 41h-3z" data-original="#ffcdbe" class=""></path><path fill="#ffbeaa" d="M26 39h-1a2 2 0 0 0-2 2h3l9.54-2.3-2.2-1.47zM31.27 52.27a2.5 2.5 0 0 1-1.77.73H22a13.834 13.834 0 0 1-7 2 37.839 37.839 0 0 1-8-1v2a37.839 37.839 0 0 0 8 1 13.834 13.834 0 0 0 7-2h7.5a2.495 2.495 0 0 0 2.289-3.5 2.478 2.478 0 0 1-.519.77z" data-original="#ffbeaa" class=""></path><path fill="#f0f0f0" d="M27 55h2.5a2.5 2.5 0 0 0 0-5H27v-3a2.006 2.006 0 0 0 2-2h14a7 7 0 0 0 0 14H29a2.006 2.006 0 0 0-2-2zM59 47v10a2.006 2.006 0 0 0-2 2H43a7 7 0 0 0 0-14h14a2.006 2.006 0 0 0 2 2z" data-original="#f0f0f0" class=""></path><path fill="#faa68e" d="M23 41v9h-1l-4-3a8.307 8.307 0 0 1 1.17-3.83C19.9 41.95 20.9 41 22 41z" data-original="#faa68e" class=""></path><path fill="#02002c" d="M10.293 30.293 8 32.586V21H6v11.586l-2.293-2.293-1.414 1.414 4 4L6.3 35.7a.985.985 0 0 0 1.408.006l4-4zM6 17h2v2H6z" data-original="#19cffc" class=""></path><path fill="#ff873c" d="m44 50.414 2.707-2.707-1.414-1.414L43 48.586l-2.293-2.293-1.414 1.414L42 50.414V51h-2v2h2v1h-2v2h2v1h2v-1h2v-2h-2v-1h2v-2h-2z" data-original="#ff873c" class=""></path></g></g></svg>